<svg width="210" height="26" viewBox="0 0 210 26" fill="none" xmlns="http://www.w3.org/2000/svg">
<g clip-path="url(#clip0_304_318)">
<path d="M19.6875 15.86H5.72251V12.428H23.73C23.2575 10.972 21.735 9.62 19.0575 9.62H5.98501C2.99251 9.62 1.26001 10.712 1.26001 13.104V15.652C1.26001 17.732 3.04501 18.928 5.67001 18.928H19.7925V22.568H0.787506C1.26001 24.544 2.78251 25.584 5.51251 25.584H19.74C22.7325 25.584 24.2025 24.44 24.2025 21.996V19.448C24.2025 17.212 22.47 16.016 19.6875 15.86Z" fill="white"/>
<path d="M48.195 9.672H30.975V25.636H35.8575V19.5H48.5625C52.08 19.5 54.0225 18.304 54.0225 15.496V13.728C53.97 11.128 51.765 9.672 48.195 9.672ZM49.77 14.768C49.77 15.912 49.56 16.536 47.67 16.536H35.8575L35.91 12.376H47.46C49.56 12.376 49.8225 13 49.8225 14.092V14.768H49.77Z" fill="white"/>
<path d="M68.1975 8.996L65.2575 12.584L70.245 19.396H59.85L57.2775 22.1H72.2925L74.865 25.636H80.64L68.1975 8.996Z" fill="white"/>
<path d="M119.858 22.62V17.732H129.675V15.028H114.923V25.636H136.71V22.62H119.858Z" fill="white"/>
<path d="M137.445 9.672H115.447V12.48H137.445V9.672Z" fill="white"/>
<path d="M150.99 9.672H143.325L152.355 16.224C153.668 15.34 155.19 14.404 156.555 13.624L150.99 9.672Z" fill="white"/>
<path d="M162.12 17.836C160.807 18.72 159.495 19.708 158.235 20.644L165.06 25.584H172.778L162.12 17.836Z" fill="white"/>
<path d="M209.475 0.364C167.475 2.756 148.05 20.54 143.693 24.752L142.8 25.584H150.57C171.57 4.732 201.758 1.04 209.475 0.364Z" fill="white"/>
<path d="M91.935 12.808H110.205C109.732 10.936 107.895 10 105.27 10H91.62C89.2575 10 87 10.936 87 13.484V22.428C87 24.976 89.2575 25.912 91.62 25.912H105.428C108.578 25.912 109.68 25.028 110.205 22.896H91.935V12.808Z" fill="white"/>
</g>
<defs>
<clipPath id="clip0_304_318">
<rect width="210" height="26" fill="white"/>
</clipPath>
</defs>
</svg>
